<?xml version="1.0" encoding="UTF-8" standalone="no"?>
<svg
   xmlns:dc="http://purl.org/dc/elements/1.1/"
   xmlns:cc="http://creativecommons.org/ns#"
   xmlns:rdf="http://www.w3.org/1999/02/22-rdf-syntax-ns#"
   xmlns:svg="http://www.w3.org/2000/svg"
   xmlns="http://www.w3.org/2000/svg"
   xmlns:xlink="http://www.w3.org/1999/xlink"
   xmlns:sodipodi="http://sodipodi.sourceforge.net/DTD/sodipodi-0.dtd"
   xmlns:inkscape="http://www.inkscape.org/namespaces/inkscape"
   viewBox="0 0 128 128"
   style="display:inline;enable-background:new"
   version="1.0"
   id="svg11300"
   height="128"
   width="128"
   sodipodi:docname="devdocs-desktop.svg"
   inkscape:version="1.0 (4035a4fb49, 2020-05-01)">
  <sodipodi:namedview
     inkscape:document-rotation="0"
     pagecolor="#ffffff"
     bordercolor="#666666"
     borderopacity="1"
     objecttolerance="10"
     gridtolerance="10"
     guidetolerance="10"
     inkscape:pageopacity="0"
     inkscape:pageshadow="2"
     inkscape:window-width="640"
     inkscape:window-height="480"
     id="namedview24"
     showgrid="false"
     inkscape:zoom="1"
     inkscape:cx="64"
     inkscape:cy="64"
     inkscape:current-layer="svg11300"
     showguides="false"
     inkscape:guide-bbox="true">
    <inkscape:grid
       type="xygrid"
       id="grid933" />
    <sodipodi:guide
       position="103.06081,125.17157"
       orientation="0,-1"
       id="guide987" />
  </sodipodi:namedview>
  <title
     id="title4162">Adwaita Icon Template</title>
  <defs
     id="defs3">
    <linearGradient
       id="linearGradient950">
      <stop
         style="stop-color:#9a9996;stop-opacity:1"
         offset="0"
         id="stop946" />
      <stop
         style="stop-color:#77767b;stop-opacity:1"
         offset="1"
         id="stop948" />
    </linearGradient>
    <linearGradient
       y2="812.88245"
       x2="1662.9901"
       y1="806.29718"
       x1="1660.8571"
       gradientTransform="matrix(1.8293937,-0.81599442,0.81599442,1.8293937,-3645.9624,-71.97051)"
       gradientUnits="userSpaceOnUse"
       id="linearGradient1001"
       xlink:href="#linearGradient950" />
  </defs>
  <metadata
     id="metadata4">
    <rdf:RDF>
      <cc:Work
         rdf:about="">
        <dc:format>image/svg+xml</dc:format>
        <dc:type
           rdf:resource="http://purl.org/dc/dcmitype/StillImage" />
        <dc:creator>
          <cc:Agent>
            <dc:title>GNOME Design Team</dc:title>
          </cc:Agent>
        </dc:creator>
        <dc:source />
        <cc:license
           rdf:resource="http://creativecommons.org/licenses/by-sa/4.0/" />
        <dc:title>Adwaita Icon Template</dc:title>
        <dc:subject>
          <rdf:Bag />
        </dc:subject>
        <dc:date />
        <dc:rights>
          <cc:Agent>
            <dc:title />
          </cc:Agent>
        </dc:rights>
        <dc:publisher>
          <cc:Agent>
            <dc:title />
          </cc:Agent>
        </dc:publisher>
        <dc:identifier />
        <dc:relation />
        <dc:language />
        <dc:coverage />
        <dc:description />
        <dc:contributor>
          <cc:Agent>
            <dc:title />
          </cc:Agent>
        </dc:contributor>
      </cc:Work>
      <cc:License
         rdf:about="http://creativecommons.org/licenses/by-sa/4.0/">
        <cc:permits
           rdf:resource="http://creativecommons.org/ns#Reproduction" />
        <cc:permits
           rdf:resource="http://creativecommons.org/ns#Distribution" />
        <cc:requires
           rdf:resource="http://creativecommons.org/ns#Notice" />
        <cc:requires
           rdf:resource="http://creativecommons.org/ns#Attribution" />
        <cc:permits
           rdf:resource="http://creativecommons.org/ns#DerivativeWorks" />
        <cc:requires
           rdf:resource="http://creativecommons.org/ns#ShareAlike" />
      </cc:License>
    </rdf:RDF>
  </metadata>
  <path
     id="path945"
     d="M 123.99993,65 A 59.999995,59.999995 0 0 1 63.999945,125 59.999995,59.999995 0 0 1 3.9999381,65 59.999995,59.999995 0 0 1 63.999945,5.00001 59.999995,59.999995 0 0 1 123.99993,65 Z"
     style="display:inline;fill:#cccccc;fill-opacity:1;stroke:none;stroke-width:0.0112982px;stroke-linecap:butt;stroke-linejoin:miter;stroke-miterlimit:4;stroke-dasharray:none;stroke-dashoffset:0;stroke-opacity:1;marker:none;marker-start:none;marker-mid:none;marker-end:none;paint-order:normal;enable-background:new" />
  <rect
     style="display:inline;fill:#d5d3cf;fill-opacity:1;stroke:none;stroke-width:0.0112982px;stroke-linecap:butt;stroke-linejoin:miter;stroke-miterlimit:4;stroke-dasharray:none;stroke-dashoffset:0;stroke-opacity:1;marker:none;marker-start:none;marker-mid:none;marker-end:none;paint-order:normal;enable-background:new"
     id="rect978"
     width="112"
     height="114"
     x="8"
     y="7"
     rx="56"
     ry="56" />
  <path
     style="display:inline;fill:#e6e6e6;fill-opacity:1;stroke:none;stroke-width:0.0112982px;stroke-linecap:butt;stroke-linejoin:miter;stroke-miterlimit:4;stroke-dasharray:none;stroke-dashoffset:0;stroke-opacity:1;marker:none;marker-start:none;marker-mid:none;marker-end:none;paint-order:normal;enable-background:new"
     d="M 123.99993,63 A 59.999995,59.999995 0 0 1 63.999945,122.99999 59.999995,59.999995 0 0 1 3.9999381,63 59.999995,59.999995 0 0 1 63.999945,3 59.999995,59.999995 0 0 1 123.99993,63 Z"
     id="path981" />
  <circle
     r="52"
     style="display:inline;fill:#4d4d4d;fill-opacity:1;stroke:none;stroke-width:0.0108798px;stroke-linecap:butt;stroke-linejoin:miter;stroke-miterlimit:4;stroke-dasharray:none;stroke-dashoffset:0;stroke-opacity:1;marker:none;marker-start:none;marker-mid:none;marker-end:none;paint-order:normal;enable-background:new"
     id="circle983"
     cx="63.999943"
     cy="63" />
  <path
     id="circle1003"
     d="m 64.000064,11 a 52.000019,52.000019 0 0 0 -52.000019,52.000019 52.000019,52.000019 0 0 0 0.03996,1.127534 52.000019,52.000019 0 0 1 51.960056,-51.201626 52.000019,52.000019 0 0 1 51.960049,50.871552 52.000019,52.000019 0 0 0 0.0399,-0.79746 A 52.000019,52.000019 0 0 0 64.000055,11 Z"
     style="display:inline;opacity:0.1;fill:#000000;fill-opacity:1;stroke:none;stroke-width:0.0108798px;stroke-linecap:butt;stroke-linejoin:miter;stroke-miterlimit:4;stroke-dasharray:none;stroke-dashoffset:0;stroke-opacity:1;marker:none;marker-start:none;marker-mid:none;marker-end:none;paint-order:normal;enable-background:new" />
  <path
     sodipodi:nodetypes="ccsssccscccc"
     inkscape:connector-curvature="0"
     id="rect4232"
     d="m 45,35 v 56 h 16.082048 c 28.143586,0 29.148714,-17.999999 29.148714,-28 0,-10 -1.005128,-28 -29.148714,-28 z M 61.082048,46.846154 C 73.143585,46.846154 77.307692,51 77.307692,63 c 0,12 -4.164107,16.153846 -16.225644,16.153846 H 57.923077 V 46.846154 Z"
     style="display:inline;fill:#e6e6e6;fill-opacity:1;stroke:none;stroke-width:0.250641;stroke-linecap:round;stroke-linejoin:round;stroke-miterlimit:4;stroke-dasharray:none;stroke-opacity:1;enable-background:new" />
  <path
     id="path995"
     style="display:inline;fill:#ffffff;fill-opacity:1;stroke:none;stroke-width:0.250641;stroke-linecap:round;stroke-linejoin:round;stroke-miterlimit:4;stroke-dasharray:none;stroke-opacity:1;enable-background:new;opacity:0.5"
     d="M 45 35 L 45 36 L 61.082031 36 C 88.777565 36 90.18855 53.415019 90.226562 63.5 C 90.227177 63.336847 90.230469 63.159202 90.230469 63 C 90.230469 53 89.225617 35 61.082031 35 L 45 35 z M 77.296875 63.5 C 77.17726 75.103079 72.968922 79.154297 61.082031 79.154297 L 57.923828 79.154297 L 57.923828 80.154297 L 61.082031 80.154297 C 73.143568 80.154297 77.308594 76 77.308594 64 C 77.308594 63.826245 77.298632 63.670476 77.296875 63.5 z " />
  <path
     id="path998"
     style="display:inline;fill:#000000;fill-opacity:1;stroke:none;stroke-width:0.250641;stroke-linecap:round;stroke-linejoin:round;stroke-miterlimit:4;stroke-dasharray:none;stroke-opacity:1;enable-background:new;opacity:0.1"
     d="M 57.923828 46.845703 L 57.923828 47.845703 L 61.082031 47.845703 C 72.968922 47.845703 77.17726 51.896921 77.296875 63.5 C 77.298632 63.329524 77.308594 63.173755 77.308594 63 C 77.308594 51 73.143568 46.845703 61.082031 46.845703 L 57.923828 46.845703 z M 90.226562 63.5 C 90.18855 73.584982 88.777565 91 61.082031 91 L 45 91 L 45 92 L 61.082031 92 C 89.225617 92 90.230469 74.000001 90.230469 64 C 90.230469 63.840798 90.227177 63.663153 90.226562 63.5 z " />
</svg>
